<?xml version="1.0"?>
<svg width="520" height="170" xmlns="http://www.w3.org/2000/svg">

 <g>
  <title>background</title>
  <rect fill="none" id="canvas_background" height="172" width="522" y="-1" x="-1"/>
 </g>
 <g>
  <title>Layer 1</title>
  <path fill="#607d8a" id="svg_3" d="m27.04863,87.660851c13.144978,4.078949 30.480076,6.325912 48.813126,6.325912c7.223,0 14.335999,-0.348991 21.142998,-1.03598c4.121002,-0.415993 7.124001,-4.09494 6.708,-8.215881c-0.417,-4.120941 -4.097,-7.127907 -8.215996,-6.707916c-6.306999,0.637001 -12.913002,0.959999 -19.635002,0.959999c-37.42915,0 -56.7861,-9.301872 -58.389095,-13.110817l0,-17.539902c2.707991,1.293007 5.871981,2.53001 9.574966,3.680012c13.144981,4.07896 30.48008,6.325958 48.813129,6.325958s35.667946,-2.246998 48.812759,-6.325958c20.311943,-6.304031 24.574944,-15.238094 24.574944,-21.623135s-4.263992,-15.319056 -24.574944,-21.623079c-13.144814,-4.079015 -30.47876,-6.326024 -48.812759,-6.326024s-35.667149,2.247993 -48.812126,6.327016c-20.310949,6.303024 -24.574952,15.238054 -24.574952,21.623079l0,106.897125c0,11.567001 13.36399,18.14299 24.574952,21.621994c13.145977,4.078995 30.480076,6.326004 48.813126,6.326004c7.215996,0 14.326996,-0.348999 21.136002,-1.035004c4.120995,-0.414993 7.125,-4.093994 6.709,-8.214996c-0.415001,-4.121002 -4.088005,-7.134995 -8.215004,-6.709c-6.309998,0.636993 -12.914001,0.959 -19.629997,0.959c-37.427151,0 -56.785101,-9.300995 -58.389095,-13.110001l0,-15.7649c3.196987,1.546974 6.581978,2.797966 9.789967,3.793938c13.144981,4.078964 30.48008,6.325958 48.813126,6.325958c6.867004,0 13.649002,-0.315002 20.159004,-0.938004c4.123001,-0.394989 7.145996,-4.056969 6.751999,-8.179909c-0.395004,-4.123947 -4.074997,-7.148895 -8.18,-6.7519c-6.037003,0.576988 -12.340004,0.86998 -18.731003,0.86998c-37.438145,0 -56.796099,-9.306854 -58.390091,-13.112801c-0.012001,-0.551994 -0.088001,-1.085983 -0.213001,-1.602989l0,-17.796738c3.134991,1.498985 6.43898,2.715965 9.57597,3.688957zm6.76598,-65.246752c11.471012,-3.205006 26.403111,-4.970018 42.048145,-4.970018c15.643997,0 30.575996,1.765013 42.046852,4.970018c11.363846,3.175018 15.44986,6.673029 16.250854,7.979036c-0.800995,1.307001 -4.887009,4.805027 -16.250854,7.979046c-11.470856,3.205025 -26.402855,4.970036 -42.046852,4.970036c-15.645035,0 -30.577133,-1.765011 -42.048145,-4.970036c-11.363966,-3.175018 -15.449955,-6.673044 -16.25095,-7.979046c0.800995,-1.306007 4.886984,-4.804018 16.25095,-7.979036z"/>
  <g id="svg_5"/>
  <g id="svg_6"/>
  <g id="svg_7"/>
  <g id="svg_8"/>
  <g id="svg_9"/>
  <g id="svg_10"/>
  <g id="svg_11"/>
  <g id="svg_12"/>
  <g id="svg_13"/>
  <g id="svg_14"/>
  <g id="svg_15"/>
  <g id="svg_16"/>
  <g id="svg_17"/>
  <g id="svg_18"/>
  <g id="svg_19"/>
  <text xml:space="preserve" text-anchor="left" font-family="'Trebuchet MS', Gadget, sans-serif" font-size="134" id="svg_23" y="163.630944" x="122.089974" stroke-opacity="null" stroke-width="0" stroke="null" fill="#859ca6">Lite</text>
  <text font-weight="bold" xml:space="preserve" text-anchor="left" font-family="'Trebuchet MS', Gadget, sans-serif" font-size="134" id="svg_22" y="166.041098" x="354.654956" stroke-opacity="null" stroke-width="0" stroke="null" fill="#607d8a">DB</text>
 </g>
</svg>