<svg fill="#50E3C2" xmlns="http://www.w3.org/2000/svg" xmlns:xlink="http://www.w3.org/1999/xlink" version="1.1" x="0px" y="0px" viewBox="0 0 5 5" enable-background="new 0 0 5 5" xml:space="preserve"><g><g><path fill="#50E3C2" d="M1.815,3.222c-0.011,0-0.021-0.009-0.021-0.021V2.5c0-0.011,0.009-0.021,0.021-0.021    c0.012,0,0.021,0.01,0.021,0.021v0.701C1.836,3.213,1.827,3.222,1.815,3.222z"></path></g><g><path fill="#50E3C2" d="M1.815,2.489c-0.011,0-0.021-0.009-0.021-0.021V1.991c0-0.012,0.009-0.021,0.021-0.021    c0.012,0,0.021,0.009,0.021,0.021v0.478C1.836,2.48,1.827,2.489,1.815,2.489z"></path></g><g><path fill="#50E3C2" d="M1.834,2.494c-0.003,0-0.006,0-0.009-0.002c-0.01-0.005-0.014-0.017-0.01-0.027l0.201-0.433    c0.005-0.011,0.018-0.016,0.028-0.01C2.056,2.027,2.06,2.039,2.055,2.05L1.854,2.482C1.85,2.49,1.843,2.494,1.834,2.494z"></path></g><g><path fill="#50E3C2" d="M2.754,2.115c-0.005,0-0.01-0.002-0.015-0.006C2.731,2.102,2.73,2.089,2.738,2.08l0.206-0.22    c0.008-0.009,0.021-0.009,0.029-0.001c0.009,0.008,0.009,0.021,0.001,0.029l-0.206,0.22C2.765,2.112,2.759,2.115,2.754,2.115z"></path></g><g><path fill="#50E3C2" d="M2.688,1.874c-0.005,0-0.01-0.001-0.013-0.005C2.666,1.862,2.665,1.849,2.672,1.84l0.189-0.234    c0.007-0.009,0.02-0.01,0.029-0.002C2.899,1.61,2.9,1.624,2.893,1.633L2.704,1.866C2.7,1.871,2.694,1.874,2.688,1.874z"></path></g><g><path fill="#50E3C2" d="M2.331,1.99c-0.005,0-0.009-0.001-0.013-0.004c-0.009-0.008-0.01-0.021-0.003-0.029l0.191-0.233    c0.007-0.009,0.02-0.01,0.028-0.003C2.543,1.729,2.545,1.741,2.538,1.75L2.347,1.982C2.343,1.988,2.337,1.99,2.331,1.99z"></path></g><g><path fill="#50E3C2" d="M4.031,1.979c-0.002,0-0.005-0.001-0.008-0.002c-0.01-0.004-0.016-0.016-0.012-0.026L4.12,1.67    c0.004-0.011,0.017-0.016,0.027-0.012c0.01,0.005,0.016,0.016,0.012,0.026L4.05,1.966C4.047,1.975,4.039,1.979,4.031,1.979z"></path></g><g><path fill="#50E3C2" d="M3.804,1.854c-0.01,0-0.019-0.008-0.021-0.018L3.735,1.54C3.733,1.528,3.741,1.518,3.752,1.516    s0.022,0.006,0.024,0.018L3.825,1.83c0.001,0.011-0.006,0.021-0.017,0.023C3.807,1.854,3.806,1.854,3.804,1.854z"></path></g><g><path fill="#50E3C2" d="M4.662,1.788c0,0-0.001,0-0.001,0C4.649,1.787,4.64,1.777,4.641,1.766l0.019-0.3    c0.001-0.012,0.011-0.021,0.022-0.02c0.011,0,0.02,0.011,0.019,0.021L4.683,1.769C4.682,1.779,4.673,1.788,4.662,1.788z"></path></g><g><path fill="#50E3C2" d="M1.859,2.526c-0.009,0-0.017-0.007-0.02-0.016C1.836,2.499,1.843,2.488,1.854,2.485L2.314,2.36    C2.325,2.357,2.337,2.363,2.34,2.374c0.003,0.012-0.003,0.023-0.015,0.025l-0.46,0.126C1.863,2.526,1.861,2.526,1.859,2.526z"></path></g><g><path fill="#50E3C2" d="M2.33,2.627c-0.001,0-0.002,0-0.004-0.001l-0.47-0.08C1.844,2.543,1.837,2.533,1.839,2.521    c0.002-0.011,0.012-0.019,0.024-0.017l0.471,0.081c0.011,0.002,0.019,0.013,0.017,0.023S2.34,2.627,2.33,2.627z"></path></g><g><path fill="#50E3C2" d="M2.243,2.836c-0.004,0-0.008-0.001-0.012-0.004C2.228,2.83,2.214,2.82,2.163,2.785L1.839,2.561    c-0.01-0.007-0.012-0.02-0.005-0.028c0.007-0.01,0.02-0.012,0.029-0.006l0.324,0.225c0.051,0.035,0.064,0.045,0.068,0.047    c0.01,0.007,0.012,0.021,0.005,0.029C2.256,2.833,2.25,2.836,2.243,2.836z"></path></g><g><path fill="#50E3C2" d="M2.077,2.989c-0.007,0-0.014-0.004-0.018-0.01L1.818,2.567c-0.006-0.01-0.003-0.022,0.008-0.028    c0.009-0.006,0.022-0.003,0.028,0.007l0.241,0.412C2.1,2.969,2.097,2.98,2.087,2.986C2.084,2.989,2.08,2.989,2.077,2.989z"></path></g><g><path fill="#50E3C2" d="M1.57,3.001C1.567,3.001,1.563,3,1.561,2.999C1.55,2.993,1.546,2.98,1.552,2.971    c0.005-0.01,0.032-0.063,0.22-0.425C1.777,2.536,1.79,2.532,1.8,2.538c0.011,0.005,0.014,0.018,0.009,0.027    C1.621,2.927,1.593,2.98,1.588,2.989C1.584,2.997,1.578,3.001,1.57,3.001z"></path></g><g><path fill="#50E3C2" d="M1.386,2.841c-0.006,0-0.013-0.003-0.017-0.009C1.363,2.822,1.365,2.81,1.374,2.803l0.388-0.278    c0.01-0.007,0.022-0.004,0.029,0.005c0.007,0.01,0.005,0.021-0.004,0.028L1.399,2.837C1.395,2.84,1.391,2.841,1.386,2.841z"></path></g><g><path fill="#50E3C2" d="M1.295,2.615c-0.01,0-0.019-0.008-0.021-0.019C1.272,2.586,1.281,2.575,1.292,2.573    C1.302,2.572,1.361,2.562,1.764,2.5c0.011-0.001,0.022,0.007,0.024,0.018C1.79,2.529,1.782,2.54,1.77,2.541    C1.368,2.604,1.309,2.612,1.298,2.614C1.297,2.614,1.296,2.615,1.295,2.615z"></path></g><g><path fill="#50E3C2" d="M1.77,2.521c-0.002,0-0.004,0-0.006-0.001L1.658,2.484C1.365,2.389,1.318,2.374,1.31,2.371    C1.298,2.367,1.292,2.355,1.296,2.345s0.016-0.018,0.026-0.014C1.332,2.334,1.378,2.35,1.67,2.445l0.105,0.034    C1.787,2.483,1.793,2.495,1.79,2.506C1.786,2.515,1.778,2.521,1.77,2.521z"></path></g><g><path fill="#50E3C2" d="M1.782,2.502c-0.006,0-0.011-0.002-0.015-0.006c-0.288-0.288-0.331-0.33-0.338-0.338s-0.008-0.021,0-0.029    c0.008-0.008,0.021-0.008,0.03,0c0.007,0.008,0.049,0.05,0.338,0.338c0.008,0.008,0.008,0.021,0,0.029    C1.792,2.5,1.787,2.502,1.782,2.502z"></path></g><g><path fill="#50E3C2" d="M1.798,2.492c-0.008,0-0.016-0.005-0.02-0.013L1.6,2.036C1.596,2.025,1.601,2.014,1.611,2.009    C1.623,2.005,1.634,2.01,1.639,2.021l0.178,0.442C1.821,2.475,1.816,2.486,1.806,2.49C1.803,2.491,1.8,2.492,1.798,2.492z"></path></g><g><circle fill="#50E3C2" cx="3.369" cy="1.712" r="0.121"></circle><circle fill="#50E3C2" cx="3.234" cy="1.33" r="0.121"></circle><circle fill="#50E3C2" cx="3.742" cy="1.526" r="0.121"></circle><circle fill="#50E3C2" cx="3.414" cy="2.515" r="0.121"></circle><circle fill="#50E3C2" cx="3.426" cy="3.042" r="0.121"></circle><circle fill="#50E3C2" cx="2.954" cy="3.391" r="0.121"></circle><circle fill="#50E3C2" cx="2.607" cy="3.708" r="0.121"></circle><circle fill="#50E3C2" cx="2.177" cy="3.899" r="0.121"></circle><circle fill="#50E3C2" cx="1.71" cy="3.942" r="0.121"></circle><circle fill="#50E3C2" cx="1.252" cy="3.834" r="0.121"></circle><circle fill="#50E3C2" cx="0.853" cy="3.585" r="0.121"></circle><circle fill="#50E3C2" cx="0.555" cy="3.222" r="0.121"></circle><circle fill="#50E3C2" cx="0.388" cy="2.782" r="0.121"></circle><circle fill="#50E3C2" cx="0.371" cy="2.312" r="0.121"></circle><circle fill="#50E3C2" cx="0.505" cy="1.862" r="0.121"></circle><circle fill="#50E3C2" cx="0.775" cy="1.477" r="0.121"></circle><circle fill="#50E3C2" cx="1.155" cy="1.2" r="0.121"></circle><circle fill="#50E3C2" cx="1.603" cy="1.058" r="0.121"></circle><circle fill="#50E3C2" cx="2.073" cy="1.066" r="0.121"></circle><circle fill="#50E3C2" cx="2.516" cy="1.225" r="0.121"></circle><circle fill="#50E3C2" cx="4.153" cy="1.662" r="0.102"></circle><circle fill="#50E3C2" cx="2.886" cy="1.587" r="0.102"></circle><circle fill="#50E3C2" cx="3.69" cy="2.013" r="0.102"></circle><circle fill="#50E3C2" cx="3.104" cy="2.726" r="0.102"></circle><circle fill="#50E3C2" cx="2.883" cy="3.084" r="0.102"></circle><circle fill="#50E3C2" cx="2.638" cy="3.396" r="0.102"></circle><circle fill="#50E3C2" cx="2.306" cy="3.613" r="0.102"></circle><circle fill="#50E3C2" cx="1.922" cy="3.712" r="0.102"></circle><circle fill="#50E3C2" cx="1.527" cy="3.684" r="0.102"></circle><circle fill="#50E3C2" cx="1.161" cy="3.531" r="0.102"></circle><circle fill="#50E3C2" cx="0.864" cy="3.269" r="0.102"></circle><circle fill="#50E3C2" cx="0.666" cy="2.925" r="0.102"></circle><circle fill="#50E3C2" cx="0.588" cy="2.536" r="0.102"></circle><circle fill="#50E3C2" cx="0.638" cy="2.143" r="0.102"></circle><circle fill="#50E3C2" cx="0.812" cy="1.787" r="0.102"></circle><circle fill="#50E3C2" cx="1.09" cy="1.504" r="0.102"></circle><circle fill="#50E3C2" cx="1.444" cy="1.325" r="0.102"></circle><circle fill="#50E3C2" cx="1.836" cy="1.269" r="0.102"></circle><circle fill="#50E3C2" cx="2.226" cy="1.341" r="0.102"></circle><circle fill="#50E3C2" cx="2.954" cy="1.129" r="0.102"></circle><circle fill="#50E3C2" cx="4.145" cy="1.296" r="0.086"></circle><circle fill="#50E3C2" cx="2.957" cy="1.856" r="0.087"></circle><circle fill="#50E3C2" cx="3.292" cy="2.155" r="0.086"></circle><circle fill="#50E3C2" cx="2.849" cy="2.511" r="0.087"></circle><circle fill="#50E3C2" cx="2.79" cy="2.841" r="0.086"></circle><circle fill="#50E3C2" cx="2.628" cy="3.136" r="0.086"></circle><circle fill="#50E3C2" cx="2.381" cy="3.363" r="0.086"></circle><circle fill="#50E3C2" cx="2.075" cy="3.499" r="0.086"></circle><circle fill="#50E3C2" cx="1.74" cy="3.53" r="0.086"></circle><circle fill="#50E3C2" cx="1.414" cy="3.453" r="0.086"></circle><circle fill="#50E3C2" cx="1.129" cy="3.275" r="0.086"></circle><circle fill="#50E3C2" cx="0.916" cy="3.016" r="0.086"></circle><circle fill="#50E3C2" cx="0.797" cy="2.701" r="0.086"></circle><circle fill="#50E3C2" cx="0.785" cy="2.367" r="0.087"></circle><circle fill="#50E3C2" cx="0.88" cy="2.044" r="0.087"></circle><circle fill="#50E3C2" cx="1.073" cy="1.77" r="0.086"></circle><circle fill="#50E3C2" cx="1.344" cy="1.571" r="0.086"></circle><circle fill="#50E3C2" cx="1.664" cy="1.47" r="0.086"></circle><circle fill="#50E3C2" cx="2" cy="1.477" r="0.086"></circle><circle fill="#50E3C2" cx="2.316" cy="1.59" r="0.087"></circle><circle fill="#50E3C2" cx="4.677" cy="1.471" r="0.073"></circle><circle fill="#50E3C2" cx="2.993" cy="2.162" r="0.073"></circle><circle fill="#50E3C2" cx="3.716" cy="2.345" r="0.073"></circle><circle fill="#50E3C2" cx="2.673" cy="2.65" r="0.073"></circle><circle fill="#50E3C2" cx="2.578" cy="2.917" r="0.073"></circle><circle fill="#50E3C2" cx="2.403" cy="3.14" r="0.073"></circle><circle fill="#50E3C2" cx="2.166" cy="3.294" r="0.073"></circle><circle fill="#50E3C2" cx="1.892" cy="3.366" r="0.073"></circle><circle fill="#50E3C2" cx="1.61" cy="3.345" r="0.073"></circle><circle fill="#50E3C2" cx="1.349" cy="3.236" r="0.073"></circle><circle fill="#50E3C2" cx="1.137" cy="3.048" r="0.073"></circle><circle fill="#50E3C2" cx="0.995" cy="2.804" r="0.072"></circle><circle fill="#50E3C2" cx="0.939" cy="2.526" r="0.073"></circle><circle fill="#50E3C2" cx="0.976" cy="2.245" r="0.073"></circle><circle fill="#50E3C2" cx="1.099" cy="1.991" r="0.073"></circle><circle fill="#50E3C2" cx="1.298" cy="1.789" r="0.073"></circle><circle fill="#50E3C2" cx="1.551" cy="1.662" r="0.073"></circle><circle fill="#50E3C2" cx="1.831" cy="1.621" r="0.073"></circle><circle fill="#50E3C2" cx="2.109" cy="1.673" r="0.073"></circle><circle fill="#50E3C2" cx="2.532" cy="1.709" r="0.073"></circle><g><circle fill="#50E3C2" cx="1.817" cy="2.5" r="0.335"></circle></g></g></g></svg>